<svg width="16" height="16" viewBox="0 0 16 16" fill="none" xmlns="http://www.w3.org/2000/svg">
<g clip-path="url(#clip0_569_229)">
<path d="M1.33301 3.99998C1.33301 2.7429 1.33301 2.11436 1.72353 1.72384C2.11405 1.33331 2.74259 1.33331 3.99967 1.33331C5.25675 1.33331 5.88529 1.33331 6.27581 1.72384C6.66634 2.11436 6.66634 2.7429 6.66634 3.99998V5.33331C6.66634 6.59039 6.66634 7.21891 6.27581 7.60945C5.88529 7.99998 5.25675 7.99998 3.99967 7.99998C2.74259 7.99998 2.11405 7.99998 1.72353 7.60945C1.33301 7.21891 1.33301 6.59039 1.33301 5.33331V3.99998Z" stroke="#0053A6" stroke-width="1.5"/>
<path d="M1.33301 12.6667C1.33301 12.0454 1.33301 11.7348 1.4345 11.4898C1.56983 11.1631 1.82939 10.9035 2.15609 10.7682C2.40113 10.6667 2.71175 10.6667 3.33301 10.6667H4.66634C5.28759 10.6667 5.59822 10.6667 5.84325 10.7682C6.16995 10.9035 6.42952 11.1631 6.56485 11.4898C6.66634 11.7348 6.66634 12.0454 6.66634 12.6667C6.66634 13.288 6.66634 13.5986 6.56485 13.8436C6.42952 14.1703 6.16995 14.4299 5.84325 14.5652C5.59822 14.6667 5.28759 14.6667 4.66634 14.6667H3.33301C2.71175 14.6667 2.40113 14.6667 2.15609 14.5652C1.82939 14.4299 1.56983 14.1703 1.4345 13.8436C1.33301 13.5986 1.33301 13.288 1.33301 12.6667Z" stroke="#0053A6" stroke-width="1.5"/>
<path d="M9.33301 10.6667C9.33301 9.4096 9.33301 8.78107 9.72354 8.39053C10.1141 8 10.7426 8 11.9997 8C13.2567 8 13.8853 8 14.2758 8.39053C14.6663 8.78107 14.6663 9.4096 14.6663 10.6667V12C14.6663 13.2571 14.6663 13.8856 14.2758 14.2761C13.8853 14.6667 13.2567 14.6667 11.9997 14.6667C10.7426 14.6667 10.1141 14.6667 9.72354 14.2761C9.33301 13.8856 9.33301 13.2571 9.33301 12V10.6667Z" stroke="#0053A6" stroke-width="1.5"/>
<path d="M9.33301 3.33331C9.33301 2.71206 9.33301 2.40143 9.43447 2.1564C9.56981 1.8297 9.82941 1.57013 10.1561 1.43481C10.4011 1.33331 10.7117 1.33331 11.333 1.33331H12.6663C13.2876 1.33331 13.5982 1.33331 13.8433 1.43481C14.1699 1.57013 14.4295 1.8297 14.5649 2.1564C14.6663 2.40143 14.6663 2.71206 14.6663 3.33331C14.6663 3.95457 14.6663 4.26519 14.5649 4.51023C14.4295 4.83693 14.1699 5.09649 13.8433 5.23182C13.5982 5.33331 13.2876 5.33331 12.6663 5.33331H11.333C10.7117 5.33331 10.4011 5.33331 10.1561 5.23182C9.82941 5.09649 9.56981 4.83693 9.43447 4.51023C9.33301 4.26519 9.33301 3.95457 9.33301 3.33331Z" stroke="#0053A6" stroke-width="1.5"/>
</g>
<defs>
<clipPath id="clip0_569_229">
<rect width="16" height="16" fill="white"/>
</clipPath>
</defs>
</svg>
