<svg width="17" height="16" viewBox="0 0 17 16" fill="none" xmlns="http://www.w3.org/2000/svg">
<path d="M10.8332 7.99999C10.8332 9.28866 9.7885 10.3333 8.49984 10.3333C7.21117 10.3333 6.1665 9.28866 6.1665 7.99999C6.1665 6.71132 7.21117 5.66666 8.49984 5.66666C9.7885 5.66666 10.8332 6.71132 10.8332 7.99999Z" stroke="#fff" stroke-width="1.5"/>
<path d="M14.5075 9.39766C14.8554 9.30386 15.0294 9.25693 15.0981 9.16719C15.1668 9.07753 15.1668 8.93319 15.1668 8.64459V7.35546C15.1668 7.06686 15.1668 6.92253 15.0981 6.83286C15.0294 6.74313 14.8554 6.69619 14.5075 6.60238C13.2072 6.25172 12.3934 4.89233 12.729 3.60057C12.8213 3.24532 12.8674 3.0677 12.8234 2.96352C12.7793 2.85934 12.6529 2.78755 12.4 2.64397L11.2502 1.99115C11.002 1.85025 10.878 1.77981 10.7666 1.79481C10.6552 1.80981 10.5296 1.93515 10.2783 2.18581C9.3055 3.15631 7.6959 3.15627 6.72306 2.18575C6.47178 1.93508 6.34615 1.80975 6.23478 1.79474C6.12342 1.77974 5.99934 1.85019 5.75118 1.99108L4.60139 2.64391C4.34852 2.78748 4.22208 2.85927 4.17802 2.96343C4.13395 3.06759 4.18008 3.24524 4.27233 3.60053C4.60774 4.89233 3.79331 6.25175 2.49284 6.60239C2.14491 6.69619 1.97094 6.74313 1.90222 6.83279C1.8335 6.92253 1.8335 7.06686 1.8335 7.35546V8.64459C1.8335 8.93319 1.8335 9.07753 1.90222 9.16719C1.97093 9.25693 2.1449 9.30386 2.49284 9.39766C3.7931 9.74833 4.60688 11.1077 4.27131 12.3995C4.17902 12.7547 4.13288 12.9323 4.17694 13.0365C4.221 13.1407 4.34744 13.2125 4.60033 13.3561L5.75013 14.0089C5.9983 14.1498 6.12239 14.2203 6.23376 14.2053C6.34514 14.1903 6.47075 14.0649 6.72197 13.8142C7.6953 12.8429 9.30603 12.8429 10.2794 13.8141C10.5306 14.0649 10.6562 14.1902 10.7676 14.2052C10.879 14.2202 11.0031 14.1497 11.2512 14.0089L12.401 13.356C12.654 13.2125 12.7804 13.1407 12.8244 13.0365C12.8685 12.9323 12.8224 12.7547 12.73 12.3994C12.3943 11.1077 13.2074 9.74839 14.5075 9.39766Z" stroke="#fff" stroke-width="1.5" stroke-linecap="round"/>
</svg>
