<svg width="16" height="16" viewBox="0 0 16 16" fill="none" xmlns="http://www.w3.org/2000/svg">
<path d="M12.1668 5.99997C13.5386 6.04904 14.7034 7.07792 14.666 8.45619C14.6572 8.77686 14.533 9.17319 14.2846 9.96586C13.6867 11.8736 12.6819 13.5296 10.431 13.9269C10.0172 14 9.55156 14 8.62036 14H7.37996C6.44876 14 5.98316 14 5.56939 13.9269C3.31842 13.5296 2.31362 11.8736 1.71574 9.96586C1.46731 9.17319 1.34309 8.77686 1.33438 8.45619C1.29691 7.07792 2.4617 6.04904 3.8335 5.99997" stroke="#44444B" stroke-width="1.5" stroke-linecap="round"/>
<path d="M8.00016 9.33333V2M8.00016 9.33333C7.53336 9.33333 6.66118 8.0038 6.3335 7.66667M8.00016 9.33333C8.46696 9.33333 9.33916 8.0038 9.66683 7.66667" stroke="#44444B" stroke-width="1.5" stroke-linecap="round" stroke-linejoin="round"/>
</svg>
