<svg width="17" height="16" viewBox="0 0 17 16" fill="none" xmlns="http://www.w3.org/2000/svg">
<path d="M5.1665 14V12" stroke="#44444B" stroke-linecap="round" stroke-linejoin="round"/>
<path d="M11.8335 14V10" stroke="#44444B" stroke-linecap="round" stroke-linejoin="round"/>
<path d="M11.8335 4V2" stroke="#44444B" stroke-linecap="round" stroke-linejoin="round"/>
<path d="M5.1665 6V2" stroke="#44444B" stroke-linecap="round" stroke-linejoin="round"/>
<path d="M5.1665 12C4.54525 12 4.23462 12 3.98959 11.8985C3.66289 11.7632 3.40332 11.5036 3.268 11.1769C3.1665 10.9319 3.1665 10.6213 3.1665 10C3.1665 9.37873 3.1665 9.06813 3.268 8.82307C3.40332 8.4964 3.66289 8.2368 3.98959 8.10147C4.23462 8 4.54525 8 5.1665 8C5.78776 8 6.09838 8 6.34342 8.10147C6.67012 8.2368 6.92968 8.4964 7.06501 8.82307C7.1665 9.06813 7.1665 9.37873 7.1665 10C7.1665 10.6213 7.1665 10.9319 7.06501 11.1769C6.92968 11.5036 6.67012 11.7632 6.34342 11.8985C6.09838 12 5.78776 12 5.1665 12Z" stroke="#44444B"/>
<path d="M11.8335 8C11.2122 8 10.9016 8 10.6566 7.89853C10.3299 7.7632 10.0703 7.5036 9.93496 7.17693C9.8335 6.93187 9.8335 6.62125 9.8335 6C9.8335 5.37875 9.8335 5.06812 9.93496 4.82309C10.0703 4.49639 10.3299 4.23682 10.6566 4.10149C10.9016 4 11.2122 4 11.8335 4C12.4548 4 12.7654 4 13.0104 4.10149C13.3371 4.23682 13.5967 4.49639 13.732 4.82309C13.8335 5.06812 13.8335 5.37875 13.8335 6C13.8335 6.62125 13.8335 6.93187 13.732 7.17693C13.5967 7.5036 13.3371 7.7632 13.0104 7.89853C12.7654 8 12.4548 8 11.8335 8Z" stroke="#44444B"/>
</svg>
