<svg width="16" height="16" viewBox="0 0 16 16" fill="none" xmlns="http://www.w3.org/2000/svg">
<path d="M10.3337 7.99999C10.3337 9.28866 9.28899 10.3333 8.00033 10.3333C6.71166 10.3333 5.66699 9.28866 5.66699 7.99999C5.66699 6.71132 6.71166 5.66666 8.00033 5.66666C9.28899 5.66666 10.3337 6.71132 10.3337 7.99999Z" stroke="#747682" stroke-width="1.5"/>
<path d="M14.007 9.39766C14.3549 9.30386 14.5289 9.25693 14.5976 9.16719C14.6663 9.07753 14.6663 8.93319 14.6663 8.64459V7.35546C14.6663 7.06686 14.6663 6.92253 14.5976 6.83286C14.5289 6.74313 14.3549 6.69619 14.007 6.60238C12.7067 6.25172 11.8929 4.89233 12.2285 3.60057C12.3208 3.24532 12.3669 3.0677 12.3229 2.96352C12.2788 2.85934 12.1524 2.78755 11.8995 2.64397L10.7497 1.99115C10.5015 1.85025 10.3775 1.77981 10.2661 1.79481C10.1547 1.80981 10.0291 1.93515 9.77781 2.18581C8.80501 3.15631 7.19541 3.15627 6.22257 2.18575C5.97129 1.93508 5.84566 1.80975 5.73429 1.79474C5.62293 1.77974 5.49885 1.85019 5.25069 1.99108L4.1009 2.64391C3.84803 2.78748 3.72159 2.85927 3.67753 2.96343C3.63346 3.06759 3.67959 3.24524 3.77184 3.60053C4.10725 4.89233 3.29282 6.25175 1.99235 6.60239C1.64442 6.69619 1.47045 6.74313 1.40173 6.83279C1.33301 6.92253 1.33301 7.06686 1.33301 7.35546V8.64459C1.33301 8.93319 1.33301 9.07753 1.40173 9.16719C1.47044 9.25693 1.64441 9.30386 1.99235 9.39766C3.29261 9.74833 4.10639 11.1077 3.77082 12.3995C3.67853 12.7547 3.63239 12.9323 3.67645 13.0365C3.72051 13.1407 3.84695 13.2125 4.09984 13.3561L5.24964 14.0089C5.49781 14.1498 5.6219 14.2203 5.73327 14.2053C5.84465 14.1903 5.97026 14.0649 6.22148 13.8142C7.19481 12.8429 8.80554 12.8429 9.77894 13.8141C10.0301 14.0649 10.1557 14.1902 10.2671 14.2052C10.3785 14.2202 10.5026 14.1497 10.7507 14.0089L11.9005 13.356C12.1535 13.2125 12.2799 13.1407 12.3239 13.0365C12.368 12.9323 12.3219 12.7547 12.2295 12.3994C11.8938 11.1077 12.7069 9.74839 14.007 9.39766Z" stroke="#747682" stroke-width="1.5" stroke-linecap="round"/>
</svg>
