<svg width="18" height="18" viewBox="0 0 18 18" fill="none" xmlns="http://www.w3.org/2000/svg">
<path fill-rule="evenodd" clip-rule="evenodd" d="M0.9375 9C0.9375 13.4528 4.5472 17.0625 9 17.0625C13.4528 17.0625 17.0625 13.4528 17.0625 9C17.0625 4.5472 13.4528 0.9375 9 0.9375C4.5472 0.9375 0.9375 4.5472 0.9375 9ZM8.76143 8.27047C8.94668 8.29537 9.20302 8.36205 9.42053 8.57955C9.63803 8.79705 9.7047 9.05332 9.7296 9.23865C9.75023 9.3921 9.75008 9.5706 9.75 9.72045V9.75V12.75C9.75 13.1642 9.41422 13.5 9 13.5C8.58577 13.5 8.25 13.1642 8.25 12.75V9.75C7.83577 9.75 7.5 9.41422 7.5 9C7.5 8.58577 7.83577 8.25 8.25 8.25H8.27955C8.42948 8.24993 8.6079 8.24977 8.76143 8.27047ZM8.99655 5.25C8.5842 5.25 8.24992 5.58579 8.24992 6C8.24992 6.41421 8.5842 6.75 8.99655 6.75H9.0033C9.41565 6.75 9.74992 6.41421 9.74992 6C9.74992 5.58579 9.41565 5.25 9.0033 5.25H8.99655Z" fill="#5E5F6E"/>
</svg>
