<svg width="20" height="20" viewBox="0 0 20 20" fill="none" xmlns="http://www.w3.org/2000/svg">
<path d="M2.10892 12.3081C1.93171 13.4697 2.72399 14.2761 3.69403 14.6779C7.41299 16.2186 12.5883 16.2186 16.3072 14.6779C17.2773 14.2761 18.0696 13.4697 17.8924 12.3081C17.7835 11.5942 17.245 10.9997 16.846 10.4192C16.3234 9.6495 16.2715 8.80992 16.2714 7.91675C16.2714 4.46497 13.4639 1.66675 10.0007 1.66675C6.53743 1.66675 3.72993 4.46497 3.72993 7.91675C3.72984 8.80992 3.67792 9.6495 3.15533 10.4192C2.75635 10.9997 2.21783 11.5942 2.10892 12.3081Z" stroke="#6C6B72" stroke-width="1.5" stroke-linecap="round" stroke-linejoin="round"/>
<path d="M6.66602 15.8333C7.04809 17.2709 8.3956 18.3333 9.99935 18.3333C11.6031 18.3333 12.9506 17.2709 13.3327 15.8333" stroke="#6C6B72" stroke-width="1.5" stroke-linecap="round" stroke-linejoin="round"/>
</svg>
