<svg width="20" height="20" viewBox="0 0 20 20" fill="none" xmlns="http://www.w3.org/2000/svg">
<g clip-path="url(#clip0_1_511)">
<path d="M9.99935 18.3334C14.6017 18.3334 18.3327 14.6025 18.3327 10.0001C18.3327 5.39771 14.6017 1.66675 9.99935 1.66675C5.39698 1.66675 1.66602 5.39771 1.66602 10.0001C1.66602 14.6025 5.39698 18.3334 9.99935 18.3334Z" stroke="#6C6B72" stroke-width="1.5"/>
<path d="M8.33398 7.49992C8.33398 6.57944 9.08015 5.83325 10.0007 5.83325C10.9212 5.83325 11.6673 6.57944 11.6673 7.49992C11.6673 7.83171 11.5704 8.14086 11.4032 8.40059C10.9052 9.17467 10.0007 9.91275 10.0007 10.8333V11.2499" stroke="#6C6B72" stroke-width="1.5" stroke-linecap="round"/>
<path d="M9.99414 14.1667H10.0009" stroke="#6C6B72" stroke-width="2" stroke-linecap="round" stroke-linejoin="round"/>
</g>
<defs>
<clipPath id="clip0_1_511">
<rect width="20" height="20" fill="white"/>
</clipPath>
</defs>
</svg>
